<?xml version="1.0" encoding="utf-8"?>
<!-- Generator: Adobe Illustrator 17.0.0, SVG Export Plug-In . SVG Version: 6.00 Build 0)  -->
<!DOCTYPE svg PUBLIC "-//W3C//DTD SVG 1.1//EN" "http://www.w3.org/Graphics/SVG/1.1/DTD/svg11.dtd">
<svg version="1.1" id="Layer_1" xmlns="http://www.w3.org/2000/svg" xmlns:xlink="http://www.w3.org/1999/xlink" x="0px" y="0px"
	 width="100px" height="100px" viewBox="0 0 100 100" enable-background="new 0 0 100 100" xml:space="preserve">
<g>
	<g>
		<path fill="#F9F9F9" d="M50,4.673c25.033,0,45.327,20.294,45.327,45.327S75.033,95.327,50,95.327S4.673,75.033,4.673,50
			S24.967,4.673,50,4.673 M50,0C22.43,0,0,22.43,0,50s22.43,50,50,50s50-22.43,50-50S77.57,0,50,0L50,0z"/>
	</g>
	<path fill="#F9F9F9" d="M69.466,46.021C64.93,47.331,57.409,40.583,50,32.968c-6.928-7.405-13.824-13.335-18.367-10.102
		c-1.193,0.635-3.304,3.08-4.215,6.423c-1.052,3.198-0.976,7.294-0.976,7.894c0,4.714,0,25.487,0,25.487
		c0,0.533,0.134-0.399,0.699-2.69c0.562-2.112,1.599-5.583,3.38-6.001c4.536-1.309,12.063,5.438,19.472,13.053
		c6.928,7.406,13.828,13.336,18.371,10.103c1.193-0.635,3.247-3.08,4.158-6.423c1.052-3.198,0.919-7.294,0.919-7.894
		c0-4.714,0-25.487,0-25.487c0-0.533-0.076,0.399-0.641,2.69C72.239,42.132,71.247,45.603,69.466,46.021z"/>
</g>
</svg>
